<svg id="Ebene_1" data-name="Ebene 1" xmlns="http://www.w3.org/2000/svg" viewBox="0 0 282.97 281.08"><defs><style>.cls-1{fill:#f2f2f2;}.cls-2{fill:#ce956d;}.cls-3{fill:#434041;}.cls-4{fill:#e0a980;}.cls-5{fill:#3f280f;}.cls-6{fill:#edeef0;}.cls-7{fill:#1f140f;}.cls-8{fill:#00bbbe;}.cls-9{fill:#fff;}</style></defs><title>user-edit</title><circle class="cls-1" cx="140.54" cy="140.54" r="136.57"/><path class="cls-2" d="M128.69,207.46s5.63,15.88-10.51,27.9c0,0,36.89,37.89,85.31,0,0,0-18.45-1.85-11.53-37.9Z" transform="translate(-21.93 -23)"/><path class="cls-3" d="M64.1,258.31c11.37-8.75,25.35-14.52,37.83-21.46,6.72-3.73,13.43-7.5,20.16-11.2,0,0,45.57,39.71,81.92,0q16.28,6.61,32.52,13.25a102.91,102.91,0,0,1,27.27,15.93S235.73,293.67,170.17,300C101.76,303.8,64.1,258.31,64.1,258.31Z" transform="translate(-21.93 -23)"/><path class="cls-4" d="M215.57,148c-.08-47-25.76-72.53-57.43-72.53S100.79,101.07,100.71,148c-1.81,0-11.29.67-5.9,11.45,0,0,5.78,7,6.2,16.08,0,0,2,4.86,5.09,2.64a93.46,93.46,0,0,0,32.71,42.51s21.43,14.06,37.33,1.56c15.18-9.35,28.3-23.35,34.89-43.62,2.57.87,4.24-3.09,4.24-3.09.42-9,6.2-16.08,6.2-16.08C226.85,148.71,217.38,148.07,215.57,148Z" transform="translate(-21.93 -23)"/><path class="cls-5" d="M216.17,148.27c-1.88,4-10.54,9.49-9.61,14.66h0c-1.16-1.82.18-7.44,0-9.66a72,72,0,0,0-1.92-11.16c-1.87-7.85-4.17-14.9-8.73-21.6-5.38-7.92-11.48-13.12-22-12.59-6.34.32-15.85,1.85-16.9,9.49-5.4-12.83-28.48-12.64-36.13-2-4.49,6.23-6.33,13.22-7.38,20.67-.64,4.49-.9,9-1.76,13.45-.53,2.65-.93,8.12-2.39,9.91,0,0-1.49-7.77-8.63-11.38s-.67-38.19.84-43.33C108.81,80,130.42,65.56,155.2,62.94c12.45-1.32,24.77-4.59,37.5-3.67a51.19,51.19,0,0,0-8,7.43c7.23-1.16,14.08-3.43,21.8-2.86-4.09,3-2.21,7.58-4.26,12.07,9-.54,15.61,10.55,20.23,16.93-4.29-1.14-8.35-3.35-12.61-4.57C228.74,93.69,221.84,136.21,216.17,148.27Z" transform="translate(-21.93 -23)"/><path class="cls-6" d="M122.09,225.65l-14.57,8.09s25.85,23.55,52.45,23.67h.86c26.9-.38,45.57-8.05,55.64-26.7L204,225.65s-20.43,18.13-37.95,17.64C166.06,243.29,147.38,244.22,122.09,225.65Z" transform="translate(-21.93 -23)"/><path class="cls-7" d="M186.17,144.41a42.36,42.36,0,0,0-8.89,1.61c-.71.22-1.41.46-2.09.72-13.13,4.24-23.55,2-28.55.26a25.81,25.81,0,0,0-3.22-1.32h0a41.25,41.25,0,0,0-9.86-1.92c-24.7-1.93-28.7,8.4-24.55,20.61,3.69,10.82,9.54,16.36,23.18,16.36s20.57-3.68,23.18-16.36a17.84,17.84,0,0,0,.31-5.79c3.28-2.9,6.56-1.5,8.49-.11a17.27,17.27,0,0,0,.19,6.56c2.61,12.68,9.54,16.36,23.18,16.36S207,175.84,210.71,165C214.87,152.81,210.87,142.48,186.17,144.41ZM152.1,164.53c-2.17,9.89-7.9,12.76-19.19,12.76s-16.14-4.32-19.19-12.76C110.29,155,113.6,147,134,148.45,145.3,149.28,154.35,154.22,152.1,164.53Zm53.91.66c-3,8.44-7.9,12.76-19.19,12.76s-17-2.87-19.19-12.76c-2.25-10.31,6.8-15.25,18.06-16.08C206.13,147.61,209.44,155.66,206,165.19Z" transform="translate(-21.93 -23)"/><polygon class="cls-7" points="89.92 138.24 83.94 139.78 81.64 124.32 91.17 124.32 89.92 138.24"/><polygon class="cls-7" points="186.17 138.24 192.15 139.78 194.44 124.32 184.91 124.32 186.17 138.24"/><path class="cls-8" d="M162.47,304.08c-77.5,0-140.54-63-140.54-140.54S85,23,162.47,23,303,86.05,303,163.54,240,304.08,162.47,304.08Zm0-273.14c-73.12,0-132.6,59.48-132.6,132.6s59.48,132.6,132.6,132.6,132.6-59.48,132.6-132.6S235.58,30.94,162.47,30.94Z" transform="translate(-21.93 -23)"/><circle class="cls-8" cx="239.85" cy="237.96" r="43.12"/><path class="cls-9" d="M284.4,238.55a13.13,13.13,0,0,0-18.56,0l-24,24a4.31,4.31,0,0,0-1.1,1.82l-5.23,17.22a4.38,4.38,0,0,0,4.19,5.65,4.29,4.29,0,0,0,1.17-.16l17.66-4.89a4.34,4.34,0,0,0,1.92-1.12l24-23.93A13.13,13.13,0,0,0,284.4,238.55ZM255.06,274l-8.88,2.47,2.6-8.56L265,251.76l6.19,6.19Zm23.16-23.11-.85.85-6.19-6.19.85-.84a4.37,4.37,0,1,1,6.19,6.18Z" transform="translate(-21.93 -23)"/></svg>