<svg width="104" height="48" viewBox="0 0 104 48" fill="none" xmlns="http://www.w3.org/2000/svg">
<rect width="32" height="48" rx="8" fill="#4F4F4F"/>
<path d="M11.0156 33.2656L14.8594 32.7969V17.3906H10.9688V14.7812L19.4062 13.25V32.7969L23.25 33.2656V36H11.0156V33.2656Z" fill="#00BBBE"/>
<rect x="36" width="32" height="48" rx="8" fill="#4F4F4F"/>
<path d="M59.9062 27.1406C59.9062 30.151 59.2135 32.4375 57.8281 34C56.4531 35.5521 54.5885 36.3281 52.2344 36.3281C49.8594 36.3281 47.9792 35.5521 46.5938 34C45.2083 32.4375 44.5156 30.151 44.5156 27.1406V22.125C44.5156 19.125 45.2031 16.8438 46.5781 15.2812C47.9635 13.7083 49.8385 12.9219 52.2031 12.9219C54.5573 12.9219 56.4271 13.7083 57.8125 15.2812C59.2083 16.8438 59.9062 19.125 59.9062 22.125V27.1406ZM55.3594 21.6562C55.3594 19.8542 55.0885 18.5365 54.5469 17.7031C54.0052 16.8594 53.224 16.4375 52.2031 16.4375C51.1719 16.4375 50.3906 16.8542 49.8594 17.6875C49.3281 18.5208 49.0625 19.8438 49.0625 21.6562V27.5781C49.0625 29.4115 49.3281 30.7448 49.8594 31.5781C50.401 32.4115 51.1927 32.8281 52.2344 32.8281C53.2552 32.8281 54.0312 32.4115 54.5625 31.5781C55.0938 30.7448 55.3594 29.4115 55.3594 27.5781V21.6562Z" fill="#00BBBE"/>
<rect x="72" width="32" height="48" rx="8" fill="#4F4F4F"/>
<path d="M93.6094 27.5312H96.1875V30.5625H93.6094V32.7969L96.0312 33.2656V36H86.625V33.2656L89.0625 32.7969V30.5625H79.7812L79.5625 28.3281L89.0156 13.25H93.6094V27.5312ZM83.8281 27.5312H89.0625V19.3281L88.9688 19.2969L88.5938 19.9531L83.8281 27.5312Z" fill="#00BBBE"/>
</svg>
