<svg width="11" height="18" viewBox="0 0 11 18" fill="none" xmlns="http://www.w3.org/2000/svg">
<path d="M1.67188 17.3242C1.99414 17.3242 2.25781 17.207 2.48242 16.9922L10.0801 9.57031C10.3438 9.29688 10.4805 9.01367 10.4805 8.66211C10.4805 8.32031 10.3535 8.01758 10.0801 7.76367L2.48242 0.332031C2.25781 0.117188 1.99414 0 1.67188 0C1.01758 0 0.509766 0.507812 0.509766 1.15234C0.509766 1.46484 0.646484 1.76758 0.861328 1.99219L7.70703 8.67188L0.861328 15.332C0.636719 15.5664 0.509766 15.8496 0.509766 16.1719C0.509766 16.8164 1.01758 17.3242 1.67188 17.3242Z" fill="white"/>
</svg>
