<svg width="32" height="32" viewBox="0 0 32 32" fill="none" xmlns="http://www.w3.org/2000/svg">
<circle cx="16" cy="16" r="16" fill="#668FFF"/>
<path d="M7.5791 18.1825V13.8423C7.5791 12.0728 8.42354 11.2159 10.1 11.2159H13.2914C13.3908 11.2159 13.4777 11.1849 13.5398 11.1166L18.5009 6.70813C19.128 6.15552 19.5316 5.89474 20.1028 5.89474C20.9721 5.89474 21.5992 6.56532 21.5992 7.41596V24.6399C21.5992 25.4781 20.9721 26.1053 20.1214 26.1053C19.5378 26.1053 19.0659 25.8569 18.4946 25.3353L13.5398 20.9083C13.4777 20.8462 13.3908 20.8089 13.2914 20.8089H10.1C8.42354 20.8089 7.5791 19.9521 7.5791 18.1825ZM13.8192 18.7972C14.1235 18.7972 14.3532 18.8531 14.614 19.089L19.1093 23.1622C19.1714 23.218 19.2273 23.2491 19.2956 23.2491C19.3825 23.2491 19.4446 23.187 19.4446 23.0752V8.91235C19.4446 8.813 19.3825 8.75091 19.2832 8.75091C19.2211 8.75091 19.1652 8.79437 19.1093 8.83784L14.614 12.9172C14.3408 13.1656 14.1235 13.2214 13.8192 13.2214H10.2925C9.92613 13.2214 9.73986 13.4077 9.73986 13.7865V18.2384C9.73986 18.6171 9.92613 18.8034 10.2925 18.8034H13.8192V18.7972Z" fill="white"/>
</svg>
