<svg width="32" height="32" viewBox="0 0 32 32" fill="none" xmlns="http://www.w3.org/2000/svg">
<circle cx="16" cy="16" r="16" fill="#8AD154"/>
<path d="M14.6641 23.4609C15.2109 23.4609 15.6406 23.25 15.9375 22.8125L23.2109 11.7266C23.4219 11.4062 23.5078 11.1016 23.5078 10.8203C23.5078 10.0625 22.9297 9.5 22.1484 9.5C21.6172 9.5 21.2812 9.69531 20.9531 10.2031L14.6328 20.1719L11.4297 16.2422C11.1328 15.8828 10.8047 15.7266 10.3516 15.7266C9.5625 15.7266 8.99219 16.2891 8.99219 17.0547C8.99219 17.3984 9.09375 17.6953 9.39062 18.0312L13.4219 22.875C13.7578 23.2734 14.1484 23.4609 14.6641 23.4609Z" fill="white"/>
</svg>
