<svg width="200" height="200" viewBox="0 0 200 200" fill="none" xmlns="http://www.w3.org/2000/svg">
<circle cx="100" cy="100" r="88" transform="rotate(-90 100 100)" stroke="#4F4F4F" stroke-width="24"/>
<path d="M162.524 21.9569C147.911 10.2498 130.372 2.93131 111.938 0.714947C105.376 -0.0739227 100 5.35728 100 11.9658C100 18.5744 105.392 23.8328 111.92 24.8602C148.269 30.5807 176.068 62.0439 176.068 100C176.068 142.011 142.011 176.068 100 176.068C57.9886 176.068 23.9316 142.011 23.9316 100C23.9316 85.8638 27.7876 72.6282 34.5052 61.2877C37.8733 55.6017 37.2573 48.0947 32.1651 43.8821C27.075 39.6712 19.4659 40.3517 15.8924 45.9079C5.84829 61.5253 0.306471 79.7059 0.012345 98.4293C-0.344697 121.158 7.05239 143.329 20.9845 161.291C34.9166 179.252 54.5523 191.93 76.6555 197.237C98.7586 202.543 122.01 200.161 142.578 190.483C163.146 180.804 179.802 164.407 189.803 143.994C199.803 123.581 202.55 100.369 197.592 78.1856C192.633 56.0019 180.264 36.1695 162.524 21.9569Z" fill="#8AD154"/>
<path d="M89.0312 95.2812C89.0312 96.4167 88.7292 97.4219 88.125 98.2969C87.5208 99.1719 86.6927 99.8542 85.6406 100.344C86.849 100.854 87.8021 101.583 88.5 102.531C89.1979 103.479 89.5469 104.562 89.5469 105.781C89.5469 107.885 88.8333 109.505 87.4062 110.641C85.9792 111.766 84.1146 112.328 81.8125 112.328C79.5 112.328 77.625 111.766 76.1875 110.641C74.7604 109.505 74.0469 107.885 74.0469 105.781C74.0469 104.552 74.3906 103.469 75.0781 102.531C75.776 101.583 76.7292 100.854 77.9375 100.344C76.875 99.8542 76.0469 99.1719 75.4531 98.2969C74.8594 97.4219 74.5625 96.4167 74.5625 95.2812C74.5625 93.2604 75.224 91.6979 76.5469 90.5938C77.8698 89.4792 79.6146 88.9219 81.7812 88.9219C83.9479 88.9219 85.6979 89.4792 87.0312 90.5938C88.3646 91.6979 89.0312 93.2604 89.0312 95.2812ZM85 105.469C85 104.448 84.6979 103.63 84.0938 103.016C83.5 102.401 82.7292 102.094 81.7812 102.094C80.8333 102.094 80.0677 102.401 79.4844 103.016C78.901 103.63 78.6094 104.448 78.6094 105.469C78.6094 106.51 78.901 107.333 79.4844 107.938C80.0677 108.531 80.8438 108.828 81.8125 108.828C82.7604 108.828 83.526 108.526 84.1094 107.922C84.7031 107.318 85 106.5 85 105.469ZM84.4688 95.4844C84.4688 94.5677 84.224 93.8333 83.7344 93.2812C83.2552 92.7188 82.6042 92.4375 81.7812 92.4375C80.9479 92.4375 80.2969 92.7135 79.8281 93.2656C79.3698 93.8073 79.1406 94.5469 79.1406 95.4844C79.1406 96.4323 79.375 97.1875 79.8438 97.75C80.3125 98.3021 80.9688 98.5781 81.8125 98.5781C82.6354 98.5781 83.2812 98.3021 83.75 97.75C84.2292 97.1875 84.4688 96.4323 84.4688 95.4844ZM102.264 88.9219C103.119 88.9219 103.905 89.0052 104.624 89.1719C105.353 89.3281 106.082 89.5625 106.811 89.875L106.014 93.2031C105.358 92.974 104.754 92.8021 104.202 92.6875C103.65 92.5625 103.014 92.5 102.296 92.5C100.941 92.5 99.8529 92.9948 99.03 93.9844C98.2175 94.974 97.806 96.4323 97.7956 98.3594L97.8425 98.4375C98.3529 97.9062 98.9988 97.4896 99.78 97.1875C100.572 96.8854 101.452 96.7344 102.421 96.7344C104.452 96.7344 106.046 97.4583 107.202 98.9062C108.358 100.344 108.936 102.182 108.936 104.422C108.936 106.714 108.223 108.604 106.796 110.094C105.369 111.583 103.525 112.328 101.264 112.328C98.8685 112.328 96.9154 111.516 95.405 109.891C93.8946 108.255 93.1394 105.995 93.1394 103.109V99.1094C93.1394 95.8906 93.9883 93.3906 95.6863 91.6094C97.3946 89.8177 99.5873 88.9219 102.264 88.9219ZM101.218 100.188C100.374 100.188 99.655 100.323 99.0613 100.594C98.4675 100.865 98.0092 101.234 97.6863 101.703V103.219C97.6863 105.021 98.0092 106.406 98.655 107.375C99.3113 108.344 100.181 108.828 101.264 108.828C102.202 108.828 102.952 108.401 103.514 107.547C104.087 106.682 104.374 105.641 104.374 104.422C104.374 103.161 104.087 102.141 103.514 101.359C102.941 100.578 102.176 100.188 101.218 100.188ZM111.638 93.625C111.638 92.2812 112.07 91.1615 112.935 90.2656C113.81 89.3698 115.024 88.9219 116.576 88.9219C118.149 88.9219 119.367 89.3698 120.232 90.2656C121.096 91.151 121.529 92.2708 121.529 93.625V94.8281C121.529 96.1719 121.096 97.2865 120.232 98.1719C119.367 99.0573 118.159 99.5 116.607 99.5C115.044 99.5 113.826 99.0573 112.951 98.1719C112.076 97.2865 111.638 96.1719 111.638 94.8281V93.625ZM114.669 94.8281C114.669 95.4323 114.836 95.9427 115.169 96.3594C115.503 96.7656 115.982 96.9688 116.607 96.9688C117.211 96.9688 117.68 96.7656 118.013 96.3594C118.346 95.9427 118.513 95.4323 118.513 94.8281V93.625C118.513 93.0208 118.341 92.5104 117.998 92.0938C117.664 91.6667 117.19 91.4531 116.576 91.4531C115.961 91.4531 115.487 91.6667 115.154 92.0938C114.831 92.5104 114.669 93.0208 114.669 93.625V94.8281ZM122.513 106.422C122.513 105.089 122.951 103.974 123.826 103.078C124.701 102.182 125.914 101.734 127.466 101.734C129.029 101.734 130.242 102.182 131.107 103.078C131.982 103.964 132.419 105.078 132.419 106.422V107.625C132.419 108.979 131.987 110.099 131.123 110.984C130.258 111.87 129.05 112.312 127.498 112.312C125.935 112.312 124.711 111.87 123.826 110.984C122.951 110.089 122.513 108.969 122.513 107.625V106.422ZM125.544 107.625C125.544 108.219 125.721 108.729 126.076 109.156C126.44 109.573 126.914 109.781 127.498 109.781C128.175 109.781 128.659 109.589 128.951 109.203C129.242 108.807 129.388 108.281 129.388 107.625V106.422C129.388 105.828 129.221 105.323 128.888 104.906C128.555 104.479 128.081 104.266 127.466 104.266C126.841 104.266 126.362 104.479 126.029 104.906C125.706 105.323 125.544 105.828 125.544 106.422V107.625ZM117.904 110.297L115.685 109.125L126.794 91.3438L129.013 92.5156L117.904 110.297Z" fill="white"/>
</svg>
