<svg width="29" height="31" viewBox="0 0 29 31" fill="none" xmlns="http://www.w3.org/2000/svg">
<path d="M0.625 26.7812C0.21875 27.1875 0 27.7031 0 28.2969C0 29.5 0.96875 30.4844 2.17188 30.4844C2.78125 30.4844 3.32812 30.2344 3.76562 29.7969L14.0938 19.1719L24.4062 29.7969C24.8281 30.25 25.4062 30.4844 26 30.4844C27.2031 30.4844 28.1719 29.5 28.1719 28.2969C28.1719 27.6875 27.9531 27.1875 27.5469 26.7812L15.8438 14.7969C15.3281 14.2656 14.75 14 14.0781 14C13.4219 14 12.8594 14.25 12.3281 14.7812L0.625 26.7812Z" fill="white"/>
<path d="M0.625 12.7812C0.21875 13.1875 0 13.7031 0 14.2969C0 15.5 0.96875 16.4844 2.17188 16.4844C2.78125 16.4844 3.32812 16.2344 3.76562 15.7969L14.0938 5.17188L24.4062 15.7969C24.8281 16.25 25.4062 16.4844 26 16.4844C27.2031 16.4844 28.1719 15.5 28.1719 14.2969C28.1719 13.6875 27.9531 13.1875 27.5469 12.7812L15.8438 0.796875C15.3281 0.265625 14.75 0 14.0781 0C13.4219 0 12.8594 0.25 12.3281 0.78125L0.625 12.7812Z" fill="white"/>
</svg>
