<svg width="27" height="27" viewBox="0 0 27 27" fill="none" xmlns="http://www.w3.org/2000/svg">
<path d="M13.5 27C20.9558 27 27 20.9558 27 13.5C27 6.04416 20.9558 0 13.5 0C6.04416 0 0 6.04416 0 13.5C0 20.9558 6.04416 27 13.5 27Z" fill="#00BBBE"/>
<path d="M20.5904 6.48574C18.9877 4.88297 16.3796 4.88297 14.7768 6.48574L7.25702 13.9883C7.09617 14.1491 6.98127 14.3445 6.91234 14.5628L5.2751 19.957C5.13149 20.4338 5.25787 20.9566 5.60255 21.3128C5.8668 21.5828 6.21723 21.7264 6.58489 21.7264C6.70553 21.7264 6.83191 21.7091 6.95255 21.6747L12.4847 20.1408C12.7145 20.0777 12.9213 19.957 13.0879 19.7904L20.5962 12.2994C22.1932 10.6966 22.1932 8.0885 20.5904 6.48574ZM11.4047 17.5959L8.61851 18.3657L9.43425 15.683L14.5125 10.6162L16.4485 12.5521L11.4047 17.5959ZM18.6545 10.3577L18.3902 10.6219L16.4543 8.68595L16.7185 8.42169C17.2528 7.88744 18.1202 7.88744 18.6545 8.42169C19.1887 8.95595 19.1887 9.8234 18.6545 10.3577Z" fill="white"/>
</svg>
