<svg width="38" height="38" viewBox="0 0 38 38" fill="none" xmlns="http://www.w3.org/2000/svg">
<circle cx="19" cy="19" r="19" fill="#8AD154"/>
<path d="M30.3787 21.8006L29.343 22.8364V25.6593C28.8105 25.2508 28.154 24.9517 27.4246 24.7475L25.5938 26.5783C27.3079 26.6804 28.3947 27.3296 28.971 27.8038C29.3211 28.059 29.642 28.2268 30.1891 28.2268C30.9258 28.2268 31.5969 27.8329 31.5969 26.819V19.6488C31.3999 20.4439 30.9915 21.1879 30.3787 21.8006Z" fill="white"/>
<path d="M16.1476 24.6089C15.6079 24.5068 15.0389 24.4557 14.4481 24.4557C12.8142 24.4557 11.297 24.8496 10.2539 25.652V11.9389C10.5311 11.2532 12.0775 10.0934 14.4481 10.0934C16.8333 10.0934 18.4161 11.2678 18.6641 11.9389V20.2834L20.9253 18.0295V11.9389C21.1733 11.2678 22.7562 10.0934 25.1268 10.0934C27.512 10.0934 29.0438 11.2532 29.3282 11.9389V14.4116C29.7075 14.6231 30.0577 14.8857 30.364 15.1921C30.9767 15.8048 31.3852 16.5488 31.5821 17.3366V11.224C30.9038 9.65578 28.3216 8 25.1341 8C22.7489 8 20.7138 8.96283 19.802 10.0497C18.8829 8.96283 16.8479 8 14.4554 8C11.2678 8 8.68565 9.65578 8 11.224V26.819C8 27.8402 8.67107 28.2268 9.40049 28.2268C9.96214 28.2268 10.2831 28.0591 10.6332 27.8038C11.2678 27.2786 12.4932 26.5637 14.4554 26.5637C14.842 26.5637 15.1994 26.5929 15.5349 26.6367L16.1476 24.6089Z" fill="white"/>
<path d="M29.5556 16.0163C28.8699 15.3307 27.9727 14.9878 27.0756 14.9878C26.1784 14.9878 25.2812 15.3307 24.5955 16.009L18.1839 22.406C18.0453 22.5446 17.9505 22.7124 17.8922 22.8948L16.4917 27.4974C16.3677 27.9059 16.4771 28.3508 16.7761 28.6499C17.0023 28.876 17.3013 29 17.615 29C17.7171 29 17.8265 28.9854 17.9286 28.9562L22.648 27.6506C22.8449 27.5995 23.02 27.4974 23.1586 27.3515L29.5629 20.9618C30.9196 19.6051 30.9196 17.3876 29.5556 16.0163ZM21.7216 25.4915L19.351 26.148L20.0439 23.8649L24.3694 19.5467L26.0252 21.2025L21.7216 25.4915ZM27.8998 19.3206L27.6737 19.5467L26.0179 17.8909L26.244 17.6648C26.4701 17.4387 26.7692 17.322 27.0683 17.322C27.3673 17.322 27.6664 17.4387 27.8925 17.6648C28.3593 18.1243 28.3593 18.8684 27.8998 19.3206Z" fill="white"/>
</svg>
