<svg width="40" height="40" viewBox="0 0 40 40" fill="none" xmlns="http://www.w3.org/2000/svg">
<circle cx="20" cy="20" r="20" fill="#14ECD4"/>
<path d="M27.6662 14.2988C26.1237 13.4242 24.0492 12.9902 21.4295 12.9902C20.1662 12.9902 19.0359 13.194 18.0319 13.5886L18.4176 14.1409C19.1157 13.8845 19.8803 13.7464 20.7247 13.7464C22.3005 13.7464 23.4641 14.1607 24.2354 15.0024C25 15.8375 25.3856 17.2053 25.3856 19.1123C25.3856 21.0193 25.2394 22.2818 24.9402 22.9C24.1755 22.2358 22.387 20.993 19.5745 19.1715C17.9455 18.0799 16.6755 17.0738 15.7713 16.14C15.7713 16.14 15.7713 16.14 15.7713 16.1334C15.3657 15.7126 15.0997 15.318 14.9136 15.0287C14.1157 13.8187 13.7168 12.6219 13.7168 11.4448C13.7168 10.1034 13.9761 8.9789 14.4947 8.06486C15.0133 7.15081 15.758 6.69708 16.7221 6.69708C17.7859 6.69708 18.1383 7.20999 17.7859 8.2424H16.7553C16.6356 8.65011 16.5758 8.99863 16.5758 9.29454C16.5758 10.6952 17.3604 11.3922 18.9362 11.3922C19.641 11.3922 20.2261 11.1621 20.6915 10.7083C21.1503 10.2546 21.383 9.61676 21.383 8.80135C21.383 7.98594 21.0306 7.31521 20.3191 6.78914C19.6144 6.26307 18.617 6.00004 17.3404 6.00004C15.4322 5.99346 13.7367 6.82202 12.2407 8.47256C10.7447 10.1231 10 11.9972 10 14.0949C10 15.3969 10.2194 16.4754 10.6516 17.3302C11.0838 18.1851 11.7221 19.0794 12.5665 20.0132L13.2447 20.6839C14.1489 21.5388 15.6915 22.6632 17.8723 24.0639C18.0186 24.1494 18.1516 24.2349 18.2846 24.3138C19.1556 24.8267 20.3923 25.5829 21.4628 26.3983C22.3138 27.0362 22.9122 27.6017 23.2713 28.0817C23.3511 28.187 23.4176 28.2987 23.484 28.4105C23.4907 28.4171 23.4907 28.4237 23.4973 28.4303C23.5106 28.45 23.5239 28.4763 23.5372 28.496V28.5026C23.8364 29.0681 23.9827 29.7454 23.9827 30.528C23.9827 31.5209 23.7168 32.2443 23.1848 32.698C22.6529 33.1517 22.0146 33.3819 21.2699 33.3819C19.5612 33.3819 18.7035 32.2377 18.7035 29.9427C18.7035 28.7788 18.8098 27.891 19.016 27.2926C19.0492 27.1874 19.0957 27.0822 19.1556 26.9836C18.7899 26.7008 18.4441 26.4444 18.1184 26.2208C16.2367 27.2335 15.2926 28.5289 15.2926 30.1203C15.2926 31.3039 15.7779 32.2508 16.7487 32.9479C17.7194 33.6449 19.1822 34 21.1237 34C23.0718 34 24.6941 33.5265 26.004 32.5862C27.3138 31.6458 27.9654 30.2518 27.9654 28.4171C27.9654 26.5824 27.1011 24.8859 25.3723 23.3274C27.0412 22.9592 28.2314 22.3739 28.9362 21.5782C29.641 20.7825 30 19.7304 30 18.4284C29.9801 16.5543 29.2154 15.1733 27.6662 14.2988Z" fill="white"/>
</svg>
