<svg width="21" height="20" viewBox="0 0 21 20" fill="none" xmlns="http://www.w3.org/2000/svg">
<path d="M6.07978 20C6.72169 20 7.23521 19.7341 8.02384 19.0463L11.1142 16.3411H15.9835C18.7895 16.3411 20.5044 14.608 20.5044 11.8294V4.51169C20.5044 1.73315 18.7895 0 15.9835 0H4.51169C1.71481 0 0 1.72398 0 4.51169V11.8294C0 14.6171 1.83402 16.3411 4.33746 16.3411H4.58505V18.3494C4.58505 19.3764 5.1536 20 6.07978 20ZM6.66667 17.2765V14.7547C6.66667 14.122 6.36405 13.8835 5.80468 13.8835H4.67675C3.1912 13.8835 2.45759 13.1408 2.45759 11.6735V4.66758C2.45759 3.20037 3.1912 2.44842 4.67675 2.44842H15.8276C17.304 2.44842 18.0468 3.20037 18.0468 4.66758V11.6735C18.0468 13.1408 17.304 13.8835 15.8276 13.8835H10.9308C10.2889 13.8835 10.0046 14.0119 9.53691 14.4796L6.66667 17.2765Z" fill="#828282"/>
</svg>
