<svg width="25" height="24" viewBox="0 0 25 24" fill="none" xmlns="http://www.w3.org/2000/svg">
<path d="M11.9976 22.0012H3.00059C2.45032 22.0012 1.99882 21.5544 1.99882 20.9994V3.00059C1.99882 2.45032 2.44562 1.99882 3.00059 1.99882H12.0024C12.5573 1.99882 13.0041 1.55203 13.0041 0.997061C13.0041 0.442093 12.5526 0 11.9976 0H3.00059C1.34509 0 0 1.34509 0 3.00059V20.9994C0 22.6549 1.34509 24 3.00059 24H12.0024C12.5573 24 13.0041 23.5532 13.0041 22.9982C13.0041 22.4433 12.5526 22.0012 11.9976 22.0012Z" fill="white"/>
<path d="M23.7837 11.2875L17.7025 5.2863C17.3122 4.90064 16.6772 4.90534 16.2869 5.2957C15.8965 5.68606 15.9012 6.32098 16.2963 6.71134L20.642 11.0006H9.00176C8.4468 11.0006 8 11.4474 8 12.0023C8 12.5573 8.4468 13.0041 9.00176 13.0041H20.6467L16.301 17.2934C15.9059 17.679 15.9059 18.3139 16.2916 18.709C16.4891 18.9065 16.7478 19.0053 17.0018 19.0053C17.2557 19.0053 17.5097 18.9112 17.7025 18.7184L23.7837 12.7172C23.9718 12.5291 24.08 12.2751 24.08 12.007C24.08 11.7343 23.9718 11.4756 23.7837 11.2875Z" fill="white"/>
</svg>
