<svg width="32" height="32" viewBox="0 0 32 32" fill="none" xmlns="http://www.w3.org/2000/svg">
<circle cx="16" cy="16" r="16" fill="#FD5622"/>
<path d="M10.9909 25.0306C10.9909 24.4907 11.4556 24.0552 12.0083 24.0552H15.3118V22.4601C11.6252 22.0736 9 19.5214 9 15.6994V13.9877C9 13.454 9.45219 13.0307 10.0174 13.0307C10.5701 13.0307 11.0349 13.454 11.0349 13.9877V15.638C11.0349 18.6503 13.1953 20.6319 16.279 20.6319C19.3564 20.6319 21.5232 18.6564 21.5232 15.638V13.9877C21.5232 13.454 21.9753 13.0307 22.5406 13.0307C23.1058 13.0307 23.5455 13.454 23.5455 13.9877V15.6994C23.5455 19.5214 20.9202 22.0736 17.2399 22.4539V24.049H20.5434C21.0961 24.049 21.5671 24.4846 21.5671 25.0245C21.5671 25.5582 21.0961 25.9999 20.5434 25.9999H12.002C11.4494 26.0061 10.9909 25.5582 10.9909 25.0306ZM12.6489 15.2454V9.76686C12.6489 7.55828 14.1625 6 16.279 6C18.3955 6 19.9091 7.55828 19.9091 9.76686V15.2454C19.9091 17.4601 18.3955 19.0061 16.279 19.0061C14.1625 19.0061 12.6489 17.4662 12.6489 15.2454ZM17.8617 15.3006V9.71778C17.8617 8.65643 17.265 7.88343 16.2853 7.88343C15.293 7.88343 14.7089 8.65643 14.7089 9.71778V15.3067C14.7089 16.3681 15.2993 17.1349 16.2853 17.1349C17.2588 17.1288 17.8617 16.3681 17.8617 15.3006Z" fill="white"/>
</svg>
