<svg width="19" height="19" viewBox="0 0 19 19" fill="none" xmlns="http://www.w3.org/2000/svg">
<path d="M3.53465 19H15.4653C17.7426 19 19 17.7426 19 15.4851V3.51485C19 1.24752 17.7426 0 15.4653 0H3.53465C1.25743 0 0 1.24752 0 3.51485V15.4851C0 17.7525 1.25743 19 3.53465 19ZM3.84158 16.3465C3.05941 16.3465 2.65347 15.9703 2.65347 15.1485V3.85149C2.65347 3.0198 3.05941 2.65347 3.84158 2.65347H15.1584C15.9307 2.65347 16.3465 3.0198 16.3465 3.85149V15.1485C16.3465 15.9703 15.9307 16.3465 15.1584 16.3465H3.84158ZM9.49505 14.1584C10.1584 14.1584 10.6238 13.6832 10.6238 13.0099V10.6238H13.1584C13.8218 10.6238 14.3069 10.1683 14.3069 9.50495C14.3069 8.83168 13.8317 8.37624 13.1584 8.37624H10.6238V5.90099C10.6238 5.21782 10.1584 4.75248 9.49505 4.75248C8.83168 4.75248 8.37624 5.22772 8.37624 5.90099V8.37624H5.84158C5.16832 8.37624 4.69307 8.83168 4.69307 9.50495C4.69307 10.1683 5.17822 10.6238 5.84158 10.6238H8.37624V13.0099C8.37624 13.6733 8.83168 14.1584 9.49505 14.1584Z" fill="#828282"/>
</svg>
