<svg id="Capa_1" data-name="Capa 1" xmlns="http://www.w3.org/2000/svg" viewBox="0 0 297 277.25"><defs><style>.cls-1{fill:#fff;}</style></defs><title>pin-map-white</title><path class="cls-1" d="M289.23,62.63,257,55.43a64.77,64.77,0,0,0-123.63-.23l-31.82,6.95-89.49-20A9.93,9.93,0,0,0,0,51.83V256.7a10,10,0,0,0,7.77,9.7L99.4,286.88a9.82,9.82,0,0,0,4.27,0h0l91.72-20,89.49,20a9.37,9.37,0,0,0,2.17.24,9.93,9.93,0,0,0,9.93-9.93V72.32A9.93,9.93,0,0,0,289.23,62.63ZM91.63,264.79l-71.76-16V64.23l71.76,16Zm103.56-235a45,45,0,0,1,44.89,44.92c0,33.25-31,68.25-44.9,82.24-13.88-14-44.89-48.9-44.89-82.24A45,45,0,0,1,195.19,29.74ZM111.5,264.86V80.32l18.95-4.14c.94,44.69,43,87.42,55.05,98.83V248.7Zm165.63-.07-71.76-16V175c12.64-12,53.47-54.57,54.55-98.58l17.21,3.85Z" transform="translate(0 -9.88)"/><path class="cls-1" d="M221.91,74.66a26.73,26.73,0,1,0-26.72,26.87A26.82,26.82,0,0,0,221.91,74.66Zm-33.58,0a6.86,6.86,0,1,1,6.86,7A6.93,6.93,0,0,1,188.33,74.66Z" transform="translate(0 -9.88)"/></svg>