<svg width="31" height="27" viewBox="0 0 31 27" fill="none" xmlns="http://www.w3.org/2000/svg">
<path d="M29.6833 5.14286L26.3783 4.44156C25.5367 1.87013 23.0117 0 20.0352 0C17.0689 0 14.544 1.86039 13.6921 4.41234L10.4282 5.08442L1.24194 3.13636C0.944282 3.06818 0.6261 3.1461 0.379765 3.32143C0.143695 3.51623 0 3.78896 0 4.09091V24.0487C0 24.5065 0.328446 24.8961 0.800587 24.9935L10.2023 26.9805C10.2742 27 10.346 27 10.4282 27C10.5 27 10.5718 26.9903 10.6437 26.9805L20.0557 25.0325L29.2419 26.9805C29.3138 27 29.3856 27 29.4677 27C29.6935 27 29.9194 26.9221 30.1041 26.7857C30.3504 26.6006 30.4839 26.3279 30.4839 26.026V6.07792C30.4839 5.62987 30.1554 5.24026 29.6833 5.14286ZM9.40176 24.8279L2.03226 23.2695V5.2987L9.40176 6.85714V24.8279ZM20.0352 1.93831C22.5806 1.93831 24.6437 3.90584 24.6437 6.31169C24.6437 9.54545 21.4619 12.9545 20.0352 14.3182C18.6085 12.9545 15.4267 9.55519 15.4267 6.31169C15.4267 3.8961 17.4897 1.93831 20.0352 1.93831ZM11.4443 24.8377V6.85714L13.3842 6.45779C13.4765 10.8117 17.7977 14.9708 19.0396 16.0812V23.2597L11.4443 24.8377ZM28.4413 24.8279L21.0718 23.2695V16.0909C22.3651 14.9221 26.563 10.7727 26.676 6.48701L28.4413 6.85714V24.8279Z" fill="#87FFF2"/>
<path d="M22.7757 6.31169C22.7757 4.87013 21.544 3.69156 20.0352 3.69156C18.5264 3.69156 17.2947 4.87013 17.2947 6.31169C17.2947 7.75325 18.5264 8.93182 20.0352 8.93182C21.544 8.93182 22.7757 7.75325 22.7757 6.31169ZM19.327 6.31169C19.327 5.93182 19.6452 5.62987 20.0352 5.62987C20.4252 5.62987 20.7434 5.93182 20.7434 6.31169C20.7434 6.69156 20.4252 6.99351 20.0352 6.99351C19.6452 6.99351 19.327 6.68182 19.327 6.31169Z" fill="#87FFF2"/>
</svg>
