<svg width="32" height="27" viewBox="0 0 32 27" fill="none" xmlns="http://www.w3.org/2000/svg">
<path d="M8.11337 19.5473V25.0891H3.14525V19.5473H8.11337ZM8.59107 17.6364H2.66755C1.88411 17.6364 1.23443 18.2861 1.23443 19.0696V25.5668C1.23443 26.3503 1.88411 27 2.66755 27H8.59107C9.3745 27 10.0242 26.3503 10.0242 25.5668V19.0696C10.0242 18.2766 9.3745 17.6364 8.59107 17.6364Z" fill="#87FFF2"/>
<path d="M18.642 16.1076V25.0891H13.6738V16.1076H18.642ZM19.1197 14.1967H13.1961C12.4127 14.1967 11.763 14.8464 11.763 15.6299V25.5668C11.763 26.3503 12.4031 27 13.1961 27H19.1197C19.9031 27 20.5528 26.3503 20.5528 25.5668V15.6299C20.5528 14.8369 19.9126 14.1967 19.1197 14.1967Z" fill="#87FFF2"/>
<path d="M29.1801 12.2858V25.0891H24.212V12.2858H29.1801ZM29.6578 10.3748H23.7343C22.9508 10.3748 22.3012 11.0245 22.3012 11.808V25.5668C22.3012 26.3503 22.9508 27 23.7343 27H29.6578C30.4412 27 31.0909 26.3503 31.0909 25.5668V11.808C31.0909 11.015 30.4412 10.3748 29.6578 10.3748Z" fill="#87FFF2"/>
<path d="M29.8489 0.0270739L23.4094 1.59405C22.9031 1.71826 22.7884 2.11955 23.161 2.49219L24.5368 3.82985C24.6515 3.96361 24.5177 4.1356 24.4031 4.21203C23.5336 4.80442 22.1674 5.66435 20.2661 6.65804C9.93819 12.0469 1.42552 11.722 1.30131 11.7125C0.61342 11.6743 0.0306213 12.1998 0.00195912 12.8877C-0.0362572 13.5756 0.489217 14.1585 1.17711 14.1967C1.22488 14.1967 1.43507 14.2063 1.77902 14.2063C3.98601 14.2063 11.9159 13.8241 21.4317 8.86517C23.6865 7.68995 25.2438 6.67715 26.1515 6.03698C26.2757 5.95099 26.505 5.78856 26.7151 5.99876L28.2151 7.49885C28.5877 7.87148 28.989 7.75683 29.1132 7.24087L30.575 0.724567C30.6801 0.218168 30.3648 -0.0971372 29.8489 0.0270739Z" fill="#87FFF2"/>
</svg>
