<svg width="27" height="27" viewBox="0 0 27 27" fill="none" xmlns="http://www.w3.org/2000/svg">
<path d="M14.349 27H12.6562C11.2852 27 10.1725 25.8873 10.1725 24.5162V23.9414C9.59238 23.7568 9.02285 23.5195 8.47969 23.24L8.07363 23.6461C7.0875 24.6322 5.51602 24.6006 4.55625 23.6461L3.35918 22.449C2.40469 21.4945 2.37305 19.9178 3.35918 18.9316L3.76523 18.5256C3.48574 17.9824 3.24844 17.4182 3.06387 16.8328H2.48379C1.1127 16.8328 0 15.7201 0 14.349V12.6562C0 11.2852 1.1127 10.1725 2.48379 10.1725H3.05859C3.24316 9.59238 3.48047 9.02285 3.75996 8.47969L3.35391 8.07363C2.36777 7.09277 2.39414 5.51602 3.35391 4.55625L4.55098 3.35918C5.51074 2.39941 7.08223 2.37832 8.06836 3.35918L8.47441 3.76523C9.01758 3.48574 9.58184 3.24844 10.1672 3.06387V2.48379C10.1672 1.1127 11.2799 0 12.651 0H14.3438C15.7148 0 16.8275 1.1127 16.8275 2.48379V3.05859C17.4076 3.24316 17.9771 3.48047 18.5203 3.75996L18.9264 3.35391C19.9125 2.36777 21.484 2.39941 22.4438 3.35391L23.6408 4.55098C24.5953 5.50547 24.627 7.08223 23.6408 8.06836L23.2348 8.47441C23.5143 9.01758 23.7516 9.58184 23.9361 10.1672H24.5109C25.882 10.1672 26.9947 11.2799 26.9947 12.651V14.3438C26.9947 15.7148 25.882 16.8275 24.5109 16.8275H23.9414C23.7568 17.4076 23.5195 17.9771 23.24 18.5203L23.6461 18.9264C24.6322 19.9072 24.6059 21.484 23.6461 22.4438L22.449 23.6408C21.4893 24.6006 19.9178 24.6217 18.9316 23.6408L18.5256 23.2348C17.9824 23.5143 17.4182 23.7516 16.8328 23.9361V24.5109C16.8328 25.8873 15.7201 27 14.349 27ZM8.73809 21.5789C9.49219 22.0271 10.3043 22.3646 11.1533 22.5809C11.5014 22.6705 11.7492 22.9869 11.7492 23.3455V24.5109C11.7492 25.0066 12.1553 25.4127 12.651 25.4127H14.3438C14.8395 25.4127 15.2455 25.0066 15.2455 24.5109V23.3455C15.2455 22.9869 15.4881 22.6705 15.8414 22.5809C16.6904 22.3594 17.5025 22.0219 18.2566 21.5789C18.5678 21.3943 18.9633 21.4471 19.2164 21.7002L20.0443 22.5281C20.4029 22.8867 20.9725 22.8762 21.3205 22.5281L22.5176 21.3311C22.8656 20.983 22.8762 20.4135 22.5176 20.0549L21.6896 19.227C21.4365 18.9738 21.3838 18.5783 21.5684 18.2672C22.0166 17.5131 22.3541 16.701 22.5703 15.852C22.66 15.5039 22.9764 15.2561 23.335 15.2561H24.5004C24.9961 15.2561 25.4021 14.85 25.4021 14.3543V12.6615C25.4021 12.1658 24.9961 11.7598 24.5004 11.7598H23.335C22.9764 11.7598 22.66 11.5172 22.5703 11.1639C22.3488 10.3148 22.0113 9.50273 21.5684 8.74863C21.3838 8.4375 21.4365 8.04199 21.6896 7.78887L22.5176 6.96094C22.8762 6.60234 22.8656 6.03281 22.5176 5.68477L21.3205 4.4877C20.9725 4.13965 20.3977 4.1291 20.0443 4.4877L19.2164 5.31563C18.9633 5.56875 18.5625 5.62148 18.2566 5.43691C17.5025 4.98867 16.6904 4.65117 15.8414 4.43496C15.4934 4.34531 15.2455 4.02891 15.2455 3.67031V2.48379C15.2455 1.98809 14.8395 1.58203 14.3438 1.58203H12.651C12.1553 1.58203 11.7492 1.98809 11.7492 2.48379V3.64922C11.7492 4.00781 11.5066 4.32422 11.1533 4.41387C10.3043 4.63535 9.49219 4.97285 8.73809 5.41582C8.42695 5.60039 8.03145 5.54766 7.77832 5.29453L6.95039 4.4666C6.5918 4.10801 6.02227 4.11855 5.67422 4.4666L4.47715 5.66367C4.1291 6.01172 4.11855 6.58125 4.47715 6.93984L5.30508 7.76777C5.5582 8.0209 5.61094 8.41641 5.42637 8.72754C4.97813 9.48164 4.64062 10.2937 4.42441 11.1428C4.33477 11.4908 4.01836 11.7387 3.65977 11.7387H2.48379C1.98809 11.7387 1.58203 12.1447 1.58203 12.6404V14.3332C1.58203 14.8289 1.98809 15.235 2.48379 15.235H3.64922C4.00781 15.235 4.32422 15.4775 4.41387 15.8309C4.63535 16.6799 4.97285 17.492 5.41582 18.2461C5.60039 18.5572 5.54766 18.9527 5.29453 19.2059L4.4666 20.0338C4.10801 20.3924 4.11855 20.9619 4.4666 21.31L5.66367 22.507C6.01172 22.8551 6.58652 22.8656 6.93984 22.507L7.76777 21.6791C7.96289 21.5104 8.3584 21.3521 8.73809 21.5789Z" fill="white"/>
<path d="M13.5 19.3746C10.2621 19.3746 7.62539 16.7379 7.62539 13.5C7.62539 10.2621 10.2621 7.62539 13.5 7.62539C16.7379 7.62539 19.3746 10.2621 19.3746 13.5C19.3746 16.7379 16.7379 19.3746 13.5 19.3746ZM13.5 9.20742C11.1322 9.20742 9.20742 11.1322 9.20742 13.5C9.20742 15.8678 11.1322 17.7926 13.5 17.7926C15.8678 17.7926 17.7926 15.8678 17.7926 13.5C17.7926 11.1322 15.8678 9.20742 13.5 9.20742Z" fill="white"/>
</svg>
