<svg id="Ebene_1" data-name="Ebene 1" xmlns="http://www.w3.org/2000/svg" viewBox="0 0 229.08 324.7"><defs><style>.cls-1{fill:#fff;}</style></defs><title>slangmap-home</title><path class="cls-1" d="M252.34,97.27q-26.52-15.19-71.45-15.2c-14.5,0-27.47,2.35-39,6.94l4.43,6.42a74.7,74.7,0,0,1,26.41-4.57q27,0,40.22,14.53T226.16,153q0,33.1-5.07,43.92-13.17-11.49-61.49-43.25-28-18.93-43.59-35.14l0,0a74.23,74.23,0,0,1-9.79-12.79q-13.87-21-13.89-41.57,0-23.31,9-39.19t25.5-15.88Q145.08,9.09,139,27H127.16a45.47,45.47,0,0,0-2,12.16q0,24.33,27,24.33,12.17,0,20.11-7.94t7.94-22.13q0-14.19-12.17-23.31T133.92,1Q101.15,1,75.47,29.7T49.79,94.91q0,22.64,7.43,37.51t22,31.08L87,171.27q15.55,14.86,53.05,39.2l4.71,2.93a385.67,385.67,0,0,1,36.4,24.16q14.59,11.12,20.72,19.54a37,37,0,0,1,2.42,3.79l.14.24.42.79,0,.07q5.1,9.84,5.1,23.48,0,17.23-9.12,25.18a32.32,32.32,0,0,1-22,7.94q-29.4,0-29.4-39.87,0-20.28,3.55-30.75a22.68,22.68,0,0,1,1.58-3.58q-6.27-4.92-11.92-8.86-32.4,17.58-32.4,45.21,0,20.61,16.72,32.78t50.18,12.16q33.45,0,55.91-16.38T255.55,261q0-31.94-29.73-59,28.73-6.42,40.89-20.28t12.16-36.48Q278.87,112.47,252.34,97.27Z" transform="translate(-49.79 -0.98)"/></svg>