<svg width="31" height="49" viewBox="0 0 31 49" fill="none" xmlns="http://www.w3.org/2000/svg">
<path d="M0.759356 45.3232L1.63484 45.1729V38.4536L0.759356 38.3032V37.6211H2.69295V40.9619C2.89347 40.6826 3.13875 40.466 3.42879 40.312C3.71883 40.158 4.04109 40.0811 4.39559 40.0811C5.01863 40.0811 5.50203 40.2673 5.84578 40.6396C6.18953 41.012 6.36141 41.585 6.36141 42.3584V45.1729L7.23689 45.3232V46H4.42781V45.3232L5.3033 45.1729V42.3477C5.3033 41.8678 5.19946 41.5133 4.99178 41.2842C4.78768 41.055 4.48152 40.9404 4.07332 40.9404C3.78328 40.9404 3.51831 41.0103 3.2784 41.1499C3.04207 41.286 2.84692 41.4722 2.69295 41.7085V45.1729L3.56844 45.3232V46H0.759356V45.3232ZM8.17662 43.0405C8.17662 42.1812 8.40937 41.474 8.87486 40.9189C9.34036 40.3604 9.97236 40.0811 10.7709 40.0811C11.5729 40.0811 12.2067 40.3586 12.6722 40.9136C13.1413 41.4686 13.3758 42.1776 13.3758 43.0405V43.1587C13.3758 44.0252 13.1431 44.7342 12.6776 45.2856C12.2121 45.8371 11.5801 46.1128 10.7816 46.1128C9.97594 46.1128 9.34036 45.8371 8.87486 45.2856C8.40937 44.7306 8.17662 44.0216 8.17662 43.1587V43.0405ZM9.23473 43.1587C9.23473 43.7746 9.36363 44.283 9.62145 44.6841C9.88284 45.0851 10.2696 45.2856 10.7816 45.2856C11.2829 45.2856 11.6643 45.0851 11.9256 44.6841C12.187 44.283 12.3177 43.7746 12.3177 43.1587V43.0405C12.3177 42.4318 12.187 41.9251 11.9256 41.5205C11.6643 41.1159 11.2793 40.9136 10.7709 40.9136C10.2624 40.9136 9.87926 41.1159 9.62145 41.5205C9.36363 41.9251 9.23473 42.4318 9.23473 43.0405V43.1587ZM14.3585 45.3232L15.234 45.1729V41.021L14.3585 40.8706V40.1885H16.1847L16.2545 40.9458C16.4407 40.6701 16.6806 40.457 16.9743 40.3066C17.2679 40.1562 17.608 40.0811 17.9948 40.0811C18.3815 40.0811 18.7127 40.1706 18.9884 40.3496C19.2677 40.5286 19.4772 40.7972 19.6168 41.1553C19.7995 40.8258 20.0412 40.5645 20.3419 40.3711C20.6427 40.1777 20.9936 40.0811 21.3947 40.0811C21.9891 40.0811 22.4581 40.2852 22.8019 40.6934C23.1456 41.098 23.3175 41.7085 23.3175 42.5249V45.1729L24.193 45.3232V46H21.3786V45.3232L22.254 45.1729V42.5142C22.254 41.9412 22.1556 41.5366 21.9586 41.3003C21.7617 41.0604 21.4699 40.9404 21.0831 40.9404C20.7143 40.9404 20.4171 41.0711 20.1915 41.3325C19.9695 41.5903 19.8406 41.9162 19.8048 42.3101V45.1729L20.6803 45.3232V46H17.8712V45.3232L18.7467 45.1729V42.5142C18.7467 41.9699 18.6447 41.5724 18.4406 41.3218C18.24 41.0675 17.9482 40.9404 17.5651 40.9404C17.2428 40.9404 16.9778 41.0067 16.7702 41.1392C16.5625 41.2716 16.4031 41.4578 16.2921 41.6978V45.1729L17.1676 45.3232V46H14.3585V45.3232ZM27.7861 46.1128C26.9768 46.1128 26.3323 45.8442 25.8525 45.3071C25.3762 44.7664 25.1381 44.0664 25.1381 43.207V42.9707C25.1381 42.1436 25.3834 41.4561 25.8739 40.9082C26.3681 40.3568 26.9517 40.0811 27.6249 40.0811C28.4055 40.0811 28.9963 40.3174 29.3974 40.79C29.802 41.2627 30.0043 41.8929 30.0043 42.6807V43.3413H26.2338L26.2177 43.3682C26.2284 43.9268 26.3699 44.3869 26.642 44.7485C26.9141 45.1066 27.2955 45.2856 27.7861 45.2856C28.1441 45.2856 28.4574 45.2355 28.726 45.1353C28.9981 45.0314 29.2327 44.89 29.4296 44.7109L29.8432 45.3984C29.6355 45.599 29.3598 45.769 29.016 45.9087C28.6759 46.0448 28.2659 46.1128 27.7861 46.1128ZM27.6249 40.9136C27.2704 40.9136 26.9679 41.064 26.7172 41.3647C26.4666 41.6619 26.3126 42.0361 26.2553 42.4873L26.266 42.5142H28.9462V42.3745C28.9462 41.9591 28.8352 41.6118 28.6132 41.3325C28.3912 41.0532 28.0618 40.9136 27.6249 40.9136Z" fill="#87FFF2"/>
<path d="M21.6946 8.00237C20.2369 7.15902 18.2765 6.74052 15.8009 6.74052C14.6071 6.74052 13.5389 6.93709 12.5902 7.31755L12.9546 7.85019C13.6143 7.60289 14.3369 7.46973 15.1349 7.46973C16.624 7.46973 17.7236 7.86921 18.4524 8.68086C19.175 9.48617 19.5394 10.8051 19.5394 12.644C19.5394 14.4829 19.4012 15.7003 19.1185 16.2964C18.3959 15.656 16.7057 14.4575 14.0479 12.7011C12.5085 11.6484 11.3084 10.6783 10.4539 9.77785C10.4539 9.77785 10.4539 9.77785 10.4539 9.77151C10.0706 9.36569 9.81925 8.98523 9.64332 8.70622C8.88933 7.53948 8.51233 6.38542 8.51233 5.25038C8.51233 3.95682 8.75738 2.87251 9.24747 1.99111C9.73757 1.10971 10.4413 0.672183 11.3524 0.672183C12.3577 0.672183 12.6907 1.16678 12.3577 2.16232H11.3838C11.2707 2.55546 11.2141 2.89153 11.2141 3.17688C11.2141 4.52751 11.9556 5.19965 13.4447 5.19965C14.1107 5.19965 14.6636 4.97772 15.1035 4.54019C15.537 4.10266 15.7569 3.48759 15.7569 2.7013C15.7569 1.91502 15.4239 1.26824 14.7516 0.760957C14.0856 0.253677 13.1431 3.74476e-05 11.9367 3.74476e-05C10.1334 -0.00630355 8.53118 0.792662 7.11745 2.38425C5.70372 3.97584 5 5.78303 5 7.8058C5 9.06132 5.20735 10.1012 5.61576 10.9256C6.02417 11.7499 6.62736 12.6123 7.42533 13.5127L8.06622 14.1595C8.92074 14.9838 10.3785 16.0681 12.4394 17.4188C12.5776 17.5012 12.7033 17.5836 12.8289 17.6597C13.652 18.1543 14.8207 18.8835 15.8323 19.6698C16.6366 20.2849 17.2021 20.8302 17.5414 21.2931C17.6168 21.3946 17.6796 21.5024 17.7424 21.6102C17.7487 21.6165 17.7487 21.6228 17.755 21.6292C17.7676 21.6482 17.7801 21.6736 17.7927 21.6926V21.6989C18.0754 22.2443 18.2137 22.8974 18.2137 23.652C18.2137 24.6094 17.9623 25.307 17.4597 25.7445C16.957 26.182 16.3538 26.4039 15.6501 26.4039C14.0353 26.4039 13.2248 25.3006 13.2248 23.0876C13.2248 21.9653 13.3253 21.1092 13.5201 20.5322C13.5515 20.4307 13.5955 20.3293 13.652 20.2342C13.3064 19.9615 12.9797 19.7142 12.6718 19.4986C10.8937 20.4751 10.0015 21.7243 10.0015 23.2588C10.0015 24.4002 10.4601 25.3133 11.3775 25.9854C12.2948 26.6576 13.6772 27 15.5119 27C17.3529 27 18.886 26.5434 20.1238 25.6367C21.3616 24.7299 21.9773 23.3856 21.9773 21.6165C21.9773 19.8474 21.1605 18.2114 19.5269 16.7086C21.104 16.3535 22.2287 15.7891 22.8947 15.0219C23.5607 14.2546 23.9 13.24 23.9 11.9845C23.8811 10.1773 23.1586 8.84573 21.6946 8.00237Z" fill="#87FFF2"/>
</svg>
