<svg width="19" height="27" viewBox="0 0 19 27" fill="none" xmlns="http://www.w3.org/2000/svg">
<path d="M16.6946 8.00237C15.2369 7.15902 13.2765 6.74052 10.8009 6.74052C9.60708 6.74052 8.53893 6.93709 7.59016 7.31755L7.95459 7.85019C8.61433 7.60289 9.3369 7.46973 10.1349 7.46973C11.624 7.46973 12.7236 7.86921 13.4524 8.68086C14.175 9.48617 14.5394 10.8051 14.5394 12.644C14.5394 14.4829 14.4012 15.7003 14.1185 16.2964C13.3959 15.656 11.7057 14.4575 9.04787 12.7011C7.50848 11.6484 6.30838 10.6783 5.45386 9.77785C5.45386 9.77785 5.45386 9.77785 5.45386 9.77151C5.07058 9.36569 4.81925 8.98523 4.64332 8.70622C3.88933 7.53948 3.51233 6.38542 3.51233 5.25038C3.51233 3.95682 3.75738 2.87251 4.24747 1.99111C4.73757 1.10971 5.44129 0.672183 6.35236 0.672183C7.35768 0.672183 7.69069 1.16678 7.35768 2.16232H6.38378C6.27068 2.55546 6.21413 2.89153 6.21413 3.17688C6.21413 4.52751 6.95555 5.19965 8.44468 5.19965C9.1107 5.19965 9.66363 4.97772 10.1035 4.54019C10.537 4.10266 10.7569 3.48759 10.7569 2.7013C10.7569 1.91502 10.4239 1.26824 9.7516 0.760957C9.08557 0.253677 8.14309 3.74476e-05 6.9367 3.74476e-05C5.13341 -0.00630355 3.53118 0.792662 2.11745 2.38425C0.703723 3.97584 0 5.78303 0 7.8058C0 9.06132 0.207347 10.1012 0.615758 10.9256C1.02417 11.7499 1.62736 12.6123 2.42533 13.5127L3.06622 14.1595C3.92074 14.9838 5.37846 16.0681 7.43936 17.4188C7.57759 17.5012 7.70326 17.5836 7.82892 17.6597C8.65203 18.1543 9.82071 18.8835 10.8323 19.6698C11.6366 20.2849 12.2021 20.8302 12.5414 21.2931C12.6168 21.3946 12.6796 21.5024 12.7424 21.6102C12.7487 21.6165 12.7487 21.6228 12.755 21.6292C12.7676 21.6482 12.7801 21.6736 12.7927 21.6926V21.6989C13.0754 22.2443 13.2137 22.8974 13.2137 23.652C13.2137 24.6094 12.9623 25.307 12.4597 25.7445C11.957 26.182 11.3538 26.4039 10.6501 26.4039C9.03531 26.4039 8.22477 25.3006 8.22477 23.0876C8.22477 21.9653 8.3253 21.1092 8.52008 20.5322C8.5515 20.4307 8.59548 20.3293 8.65203 20.2342C8.30645 19.9615 7.97972 19.7142 7.67184 19.4986C5.89368 20.4751 5.00146 21.7243 5.00146 23.2588C5.00146 24.4002 5.46014 25.3133 6.37749 25.9854C7.29485 26.6576 8.67716 27 10.5119 27C12.3529 27 13.886 26.5434 15.1238 25.6367C16.3616 24.7299 16.9773 23.3856 16.9773 21.6165C16.9773 19.8474 16.1605 18.2114 14.5269 16.7086C16.104 16.3535 17.2287 15.7891 17.8947 15.0219C18.5607 14.2546 18.9 13.24 18.9 11.9845C18.8811 10.1773 18.1586 8.84573 16.6946 8.00237Z" fill="#87FFF2"/>
</svg>
