<svg width="32" height="32" viewBox="0 0 32 32" fill="none" xmlns="http://www.w3.org/2000/svg">
<circle cx="16" cy="16" r="16" fill="#BDBDBD"/>
<path d="M24.05 17.5148L23.2608 18.3039V20.4547C22.8551 20.1435 22.355 19.9156 21.7992 19.76L20.4043 21.1549C21.7103 21.2327 22.5384 21.7273 22.9774 22.0886C23.2442 22.2831 23.4887 22.4109 23.9055 22.4109C24.4668 22.4109 24.9781 22.1108 24.9781 21.3383V15.8753C24.8281 16.4811 24.5168 17.0479 24.05 17.5148Z" fill="white"/>
<path d="M13.2077 19.6544C12.7965 19.5766 12.363 19.5377 11.9128 19.5377C10.6679 19.5377 9.51198 19.8378 8.71726 20.4491V10.001C8.92845 9.47864 10.1066 8.595 11.9128 8.595C13.7301 8.595 14.9361 9.48975 15.125 10.001V16.3588L16.8479 14.6415V10.001C17.0368 9.48975 18.2428 8.595 20.049 8.595C21.8663 8.595 23.0333 9.47864 23.2501 10.001V11.885C23.5391 12.0462 23.8058 12.2463 24.0393 12.4797C24.5061 12.9465 24.8173 13.5134 24.9674 14.1136V9.45641C24.4505 8.26155 22.4832 7 20.0545 7C18.2372 7 16.6867 7.73359 15.992 8.56165C15.2918 7.73359 13.7412 7 11.9184 7C9.48975 7 7.5224 8.26155 7 9.45641V21.3383C7 22.1164 7.51129 22.4109 8.06704 22.4109C8.49496 22.4109 8.73949 22.2831 9.00625 22.0886C9.48975 21.6884 10.4234 21.1438 11.9184 21.1438C12.2129 21.1438 12.4852 21.166 12.7409 21.1994L13.2077 19.6544Z" fill="white"/>
<path d="M23.4234 13.1077C22.901 12.5853 22.2174 12.3241 21.5338 12.3241C20.8503 12.3241 20.1667 12.5853 19.6443 13.1021L14.7593 17.9761C14.6537 18.0817 14.5814 18.2095 14.537 18.3484L13.4699 21.8552C13.3755 22.1664 13.4588 22.5054 13.6867 22.7333C13.859 22.9056 14.0868 23 14.3258 23C14.4036 23 14.487 22.9889 14.5648 22.9667L18.1605 21.9719C18.3105 21.933 18.4439 21.8552 18.5495 21.744L23.429 16.8757C24.4626 15.842 24.4626 14.1525 23.4234 13.1077ZM17.4547 20.3269L15.6485 20.8271L16.1764 19.0876L19.472 15.7975L20.7336 17.0591L17.4547 20.3269ZM22.1618 15.6252L21.9896 15.7975L20.728 14.536L20.9003 14.3637C21.0726 14.1914 21.3004 14.1025 21.5283 14.1025C21.7561 14.1025 21.984 14.1914 22.1563 14.3637C22.512 14.7138 22.512 15.2807 22.1618 15.6252Z" fill="white"/>
</svg>
