<svg width="20" height="20" viewBox="0 0 20 20" fill="none" xmlns="http://www.w3.org/2000/svg">
<path d="M0 10.0062C0 4.52351 4.51114 0 9.98144 0C15.4641 0 19.9938 4.52351 19.9938 10.0062C19.9938 15.4765 15.4703 20 9.98762 20C4.52351 20 0 15.4765 0 10.0062ZM15.8725 15.4455C17.1968 14.0223 18.0012 12.1101 18.0012 10.0062C17.9889 5.56931 14.4183 1.99876 9.98144 1.99876C5.55693 1.99876 2.01114 5.56931 2.01114 10.0062C2.01114 12.1101 2.81559 14.0161 4.12748 15.4394C5.1547 14.3193 7.25866 13.3416 9.99381 13.3416C12.7413 13.3354 14.8453 14.3131 15.8725 15.4455ZM6.67079 8.10025C6.65842 6.1448 8.13738 4.51733 9.99381 4.51733C11.8564 4.51733 13.3292 6.15099 13.3292 8.10025C13.3292 10.1671 11.8688 11.776 9.99381 11.7512C8.13119 11.745 6.67698 10.1671 6.67079 8.10025Z" fill="#828282"/>
</svg>
