<?xml version="1.0" encoding="utf-8"?>
<!-- Generator: Adobe Illustrator 23.0.0, SVG Export Plug-In . SVG Version: 6.00 Build 0)  -->
<svg version="1.1" id="Ebene_1" xmlns="http://www.w3.org/2000/svg" xmlns:xlink="http://www.w3.org/1999/xlink" x="0px" y="0px"
	 viewBox="0 0 442 441.52" style="enable-background:new 0 0 442 441.52;" xml:space="preserve">
<style type="text/css">
	.st0{fill:#323232;}
	.st1{fill:#010202;}
	.st2{fill:#FFFFFF;}
</style>
<path class="st2" d="M424.08,175.92L396,172.64c-3.84-14.64-9.6-28.64-16.96-41.76l17.28-21.84c6.4-8.08,5.68-19.6-1.52-26.88
	l-33.68-33.68c-7.28-7.28-18.8-7.92-26.88-1.52l-21.2,16.8c-13.76-8.08-28.48-14.24-43.92-18.4l-3.2-27.44
	C264.72,7.68,256.08,0,245.84,0h-47.76C187.84,0,179.2,7.68,178,17.92l-3.2,27.44C158.96,49.6,143.84,56,129.76,64.4l-22-17.44
	c-8.08-6.4-19.6-5.68-26.88,1.52L47.12,82.24c-7.28,7.28-7.92,18.8-1.52,26.88L64,132.4c-7.36,13.28-12.96,27.44-16.64,42.16
	l-29.44,3.36C7.68,179.12,0,187.76,0,198v47.76c0,10.24,7.68,18.88,17.92,20.08l31.04,3.6c3.92,13.44,9.36,26.4,16.24,38.56
	l-19.6,24.72c-6.4,8.08-5.68,19.6,1.52,26.88l33.76,33.76c7.28,7.28,18.8,7.92,26.88,1.52l24.56-19.44
	c12.64,7.28,26.08,12.96,40.08,16.96l3.68,31.6c1.2,10.24,9.84,17.92,20.08,17.92h47.76c10.24,0,18.88-7.68,20.08-17.92l3.52-30.48
	c15.04-3.92,29.44-9.76,42.96-17.36l23.76,18.8c8.08,6.4,19.6,5.68,26.88-1.52l33.76-33.76c7.28-7.28,7.92-18.8,1.52-26.88
	l-18.48-23.44c7.68-13.28,13.68-27.44,17.68-42.24l28.48-3.28c10.24-1.2,17.92-9.84,17.92-20.08V196
	C442,185.76,434.32,177.12,424.08,175.92z M220.96,353.08c-72.97,0-132.12-59.15-132.12-132.12S147.99,88.84,220.96,88.84
	s132.12,59.15,132.12,132.12S293.93,353.08,220.96,353.08z"/>
</svg>
