<svg width="12" height="12" viewBox="0 0 12 12" fill="none" xmlns="http://www.w3.org/2000/svg">
<path d="M1.00293 10.3776C0.667969 10.7125 0.661133 11.3073 1.00977 11.6559C1.36523 12.0045 1.95996 11.9977 2.28809 11.6696L6.33496 7.62269L10.375 11.6627C10.7168 12.0045 11.3047 12.0045 11.6533 11.6559C12.002 11.3004 12.002 10.7194 11.6602 10.3776L7.62012 6.33753L11.6602 2.29066C12.002 1.94886 12.0088 1.36097 11.6533 1.01234C11.3047 0.663703 10.7168 0.663703 10.375 1.0055L6.33496 5.04554L2.28809 1.0055C1.95996 0.670539 1.3584 0.656867 1.00977 1.01234C0.661133 1.36097 0.667969 1.96253 1.00293 2.29066L5.04297 6.33753L1.00293 10.3776Z" fill="white"/>
</svg>
