<svg id="Ebene_1" data-name="Ebene 1" xmlns="http://www.w3.org/2000/svg" viewBox="0 0 875.94 327.67"><defs><style>.cls-1{fill:#999;}.cls-2{fill:#00bbbe;}.cls-3{fill:#14ecd4;}</style></defs><title>slangmap-logo</title><path class="cls-1" d="M371.39,264V150.79a7.51,7.51,0,0,1,4.16-7.14l54.95-32.33c1.49-.89,2.88-1.59,4.46-2.38V271.13a36,36,0,0,1,4.89,4.95,39.7,39.7,0,0,1,4.53,7.22h7.13c.31-1,.65-2,1-3V111c1.29.7,2.77,1.39,4,2.18l59.41,36.3v91.11a37.25,37.25,0,0,1,15.68,6.61c.84.63,1.62,1.3,2.38,2V154a7.51,7.51,0,0,1,4.16-7.14l21.12-12.42,34-18.6a5.12,5.12,0,0,1,1.89-.59c1.19,0,1.88.89,1.88,2.28v148l18.05-.72V114.27c1.29.7,2.78,1.39,4,2.19l59.41,36.3V265.94a35.35,35.35,0,0,1,8.09,4.9c2.15-1.22,4.62-2.46,7.45-3.75.76-.35,1.52-.6,2.27-.91l-.11-123.79-9.37-5.7L618,94.64a25.31,25.31,0,0,0-12.89-3.57A26,26,0,0,0,592,94.64l-50.84,29.45-16.91,9.35L455.39,91.38a25.29,25.29,0,0,0-12.89-3.57,26,26,0,0,0-13.09,3.57l-65.56,38c-6.94,3.87-10,9.22-10,17.16V264.7Z" transform="translate(-87.06 -87.81)"/><path class="cls-2" d="M103.44,339.24,105,350.93a47.59,47.59,0,0,0,13.74,1.48q13.2-.2,13.09-9.23-.06-3.84-4.62-6.54A49,49,0,0,0,116.05,332a134.51,134.51,0,0,1-13.11-4.58,27.65,27.65,0,0,1-11.17-8.29,21.58,21.58,0,0,1-4.71-13.81q-.23-14.73,9.55-21.81t24.5-7.3a91.91,91.91,0,0,1,14.48,1.05c5.19.76,9.31,1.51,12.33,2.25l4.37,1.27q-.21,8.37-.31,25.11l-14.72.21-2.66-10.84a31.1,31.1,0,0,0-11.07-1.51q-5.19.08-8.16,2.37a7.39,7.39,0,0,0-2.92,6.32q.06,3.86,4.69,6.46a54.34,54.34,0,0,0,11.11,4.52q6.47,1.92,13,4.41a27.57,27.57,0,0,1,11.24,8,20.46,20.46,0,0,1,4.8,13.48q.19,14.22-10.14,22.32T119.28,370a125.43,125.43,0,0,1-14.73-.71c-5.14-.54-9.12-1.07-11.91-1.59l-4.2-.94-.39-27.27Z" transform="translate(-87.06 -87.81)"/><path class="cls-2" d="M172,241.33,210.67,240l0,112.09,15.9,4.19v13.39l-54.54,0V356.27l13.38-4.18,0-94L172,254.72Z" transform="translate(-87.06 -87.81)"/><path class="cls-2" d="M328.31,367.33l-33.14,1.12-3-10.88q-1.51,1.35-4,3.43a54.71,54.71,0,0,1-9.62,5.58,30.56,30.56,0,0,1-13.48,3.5q-12.22,0-19.06-6.89t-6.83-19.42q0-27.6,40.2-27.54l11.71,0v-9.2q0-12.56-12.85-12.57a41.79,41.79,0,0,0-7.54.66,35.54,35.54,0,0,0-5.52,1.33l-1.67.5L261,307.84l-15.06,0-1.13-24.76q20.25-6.66,36.32-6.63,19.06,0,26.91,7.49t7.83,25.69l-.07,41.32,12.55,3Zm-65-26q0,10,9.85,10.05a17.56,17.56,0,0,0,8.45-2.41,30.56,30.56,0,0,0,6.95-4.92l2.52-2.34,0-11.21-9.54,0q-9.7,0-14,2.57T263.27,341.3Z" transform="translate(-87.06 -87.81)"/><path class="cls-2" d="M342.94,280.32l34.64-1.3,1.16,11.54c1.22-1,2.85-2.2,4.86-3.59a74.82,74.82,0,0,1,11.12-5.68,37.08,37.08,0,0,1,14.81-3.59q12,0,18.48,8t6.42,21.83l0,44.34c1.44.45,3.51,1.17,6.18,2.18s4.51,1.68,5.52,2v13.38l-45.17,0V356l8.87-4.17,0-40.49a14.67,14.67,0,0,0-3.09-9.62,10.17,10.17,0,0,0-8.28-3.77,18.83,18.83,0,0,0-9.12,2.41,26.52,26.52,0,0,0-6.61,4.77l-2.18,2.34,0,44.33,8.69,4.19v13.38l-46.34,0V355.94l12.88-4.17.05-54.71-12.88-3.35Z" transform="translate(-87.06 -87.81)"/><path class="cls-2" d="M739.39,307.73l.07,44.34,11.38,4.16,0,13.38-44.83.07,0-13.38,8.87-4.2-.06-39.31q0-7-2.28-10.37c-1.5-2.23-4-3.35-7.45-3.34a21.84,21.84,0,0,0-9.44,2.19,24.26,24.26,0,0,0-6.77,4.36l-2.34,2.18.06,44.33,8.71,4.17,0,13.38-42.16.06,0-13.38,8.7-4.2-.05-39.31q0-7.19-2.19-10.45t-7.37-3.26a22.55,22.55,0,0,0-9.53,2.19,27.51,27.51,0,0,0-7,4.36l-2.18,2.18.07,44.33,8.87,4.17,0,13.39-46.34.06,0-13.38,12.87-4.2-.07-54.87-12.72-3.17,0-13.38,34.46-1.39,1.19,11.88c1.11-1,2.61-2.26,4.51-3.77a64.31,64.31,0,0,1,10.54-6,32.75,32.75,0,0,1,14.21-3.78q16.56,0,22.77,14.35a72.21,72.21,0,0,1,5.85-5.19,51.86,51.86,0,0,1,10.53-6,33.61,33.61,0,0,1,13.88-3.27q12.54,0,18.91,7.83T739.39,307.73Z" transform="translate(-87.06 -87.81)"/><path class="cls-2" d="M854.92,367.45l-33.13,1.22-3-10.86c-1,.89-2.35,2-4,3.43a55,55,0,0,1-9.61,5.62,30.45,30.45,0,0,1-13.47,3.53q-12.23,0-19.08-6.83t-6.89-19.39q0-27.62,40.11-27.67l11.71,0v-9.2q0-12.54-12.9-12.52a41.6,41.6,0,0,0-7.53.68,37.78,37.78,0,0,0-5.52,1.34l-1.67.51-2.5,10.88-15,0-1.21-24.76q20.24-6.72,36.3-6.74,19.06,0,26.93,7.4t7.91,25.67l.06,41.32,12.55,3ZM789.8,341.62c0,6.69,3.29,10,9.88,10a17.57,17.57,0,0,0,8.45-2.44,30.4,30.4,0,0,0,6.93-4.94l2.51-2.35,0-11.2H808q-9.71,0-14,2.61T789.8,341.62Z" transform="translate(-87.06 -87.81)"/><path class="cls-2" d="M880.16,294.33,866.77,291V277.62l35.13-1.38,1.51,9.36c.89-.77,2.09-1.78,3.6-3a49,49,0,0,1,8.69-4.95,28.78,28.78,0,0,1,12.47-3.11q17.05,0,25.93,11.76T963,318.82q0,23.76-11.42,36.57t-34.19,12.84a51.62,51.62,0,0,1-12.55-1.66l0,21.25,15.91,3.83V405l-53.53.07,0-13.39,13-3.86Zm24.6,9.17.06,44.67c2.79,1.67,7.13,2.5,13,2.49q10.36,0,14.8-7.13t4.4-21.66q0-27.6-16.76-27.59a17.85,17.85,0,0,0-14,7.05Z" transform="translate(-87.06 -87.81)"/><path class="cls-3" d="M565.19,302.51Q552.07,295,529.84,295a51.58,51.58,0,0,0-19.27,3.43l2.2,3.18a36.76,36.76,0,0,1,13.06-2.27q13.38,0,19.89,7.19t6.52,23.57q0,16.37-2.51,21.72-6.51-5.69-30.42-21.39-13.86-9.36-21.56-17.38l0,0a36.81,36.81,0,0,1-4.85-6.33q-6.85-10.41-6.86-20.56,0-11.53,4.42-19.39t12.62-7.85q9,0,6,8.86h-5.85a22.36,22.36,0,0,0-1,6q0,12,13.37,12a13.47,13.47,0,0,0,9.94-3.93q3.93-3.93,3.93-10.95a13.84,13.84,0,0,0-6-11.53q-6-4.51-16.88-4.51-16.2,0-28.91,14.2T465,301.34q0,11.19,3.67,18.55a71.58,71.58,0,0,0,10.87,15.38l3.84,3.84q7.69,7.35,26.24,19.39,8.86,5.5,12.2,7.68-26.91,9.36-26.91,27.08a19,19,0,0,0,8.28,16.21q8.26,6,24.81,6t27.66-8.11q11.13-8.1,11.12-23.9t-14.71-29.16q14.2-3.18,20.22-10t6-18.05Q578.31,310,565.19,302.51ZM539.7,408.05A16,16,0,0,1,528.84,412q-14.54,0-14.54-19.72,0-10,1.75-15.21t8.78-8.86q11.37,7.86,15.37,13.37t4,14Q544.22,404.12,539.7,408.05Z" transform="translate(-87.06 -87.81)"/></svg>