<?xml version="1.0" encoding="utf-8"?>
<!-- Generator: Adobe Illustrator 22.1.0, SVG Export Plug-In . SVG Version: 6.00 Build 0)  -->
<svg version="1.1" id="Ebene_1" xmlns="http://www.w3.org/2000/svg" xmlns:xlink="http://www.w3.org/1999/xlink" x="0px" y="0px"
	 viewBox="0 0 732 500" style="enable-background:new 0 0 732 500;" xml:space="preserve">
<style type="text/css">
	.st0{fill:url(#SVGID_1_);}
</style>
<linearGradient id="SVGID_1_" gradientUnits="userSpaceOnUse" x1="372.8578" y1="-134.3125" x2="664.5864" y2="-134.3125" gradientTransform="matrix(0.5499 -0.8353 0.8353 0.5499 181.8326 771.3347)">
	<stop  offset="0" style="stop-color:#F92552"/>
	<stop  offset="1" style="stop-color:#F7931E"/>
</linearGradient>
<path class="st0" d="M539,235.1c-0.9-0.4-1.7-0.4-2.5-0.3c-10.1-30.7-35.1-55.8-68.6-64.6c-10.9-2.8-22.1-3.7-33.2-2.8
	c-17.4-29.2-45.5-50.3-78.8-59c-53.9-14-110.6,7.8-141.2,54.3c-7.8,11.9-13.6,25-17.2,38.8c-10.7,41.2-0.2,83,24.6,113.9
	c-0.4,0.5-0.7,1.2-1,2l-6.5,25.5c-0.9,3.4,1.2,5.4,4.6,4.5l25.3-7.1c1-0.3,1.7-0.7,2.2-1.3c12.9,9.4,27.6,16.7,43.9,20.9
	c33.3,8.6,68.1,3.8,97.5-13.2c9.2,6.2,19.5,10.9,30.4,13.7c40.8,10.6,83.7-5.9,106.8-41.1c5.9-9,10.3-18.9,13-29.4
	c1.9-7.2,2.8-14.5,3-21.7c0.8,0,1.7-0.3,2.6-1l20.5-16.5c2.7-2.2,2.3-5.1-1-6.3L539,235.1z M519.8,285.3
	c-2.2,8.6-5.8,16.6-10.5,23.6c-18.1,27.5-52.3,41.8-86,33.1c-10.5-2.7-19.9-7.5-28-13.7c15.5-14.8,22.3-32.9,27.8-47.6
	c1.6-4.2,3-7.9,4.5-11.2c1.4,3.5,3.8,6.7,7.2,8.9c8.9,5.8,20.8,3.4,26.6-5.5c5.8-8.9,3.4-20.8-5.5-26.6c-5.1-3.3-11.1-3.9-16.5-2.1
	c-14,3.3-19.5,17.8-25.3,33.1c-7.9,21-17.6,46.6-50.8,59.9c-1.3,0.5-2.7,1.1-4,1.5c-1.4,0.5-2.9,1-4.3,1.4
	c-18.7,5.6-39.2,6.5-59.5,1.2c-59.2-15.4-94.7-75.8-79.4-135c3.1-12.1,8.2-23.2,14.7-33.1c25.3-38.5,73.2-58.5,120.3-46.3
	c30.3,7.9,54.4,27.6,68.6,52.9c-22.5,6.6-38.6,24.9-52.9,41.3c-5.1,5.8-9.5,10.8-13.7,15c2.1-10-1.9-20.7-10.9-26.6
	c-11.8-7.8-27.7-4.5-35.5,7.3c-7.8,11.8-4.5,27.7,7.3,35.5c1,0.6,2,1.1,3,1.6l-0.1,0.1c23,12.8,39.6-6.3,57.1-26.5
	c13.8-15.9,29.5-33.9,50.4-39.1c12.3-3,25.5-3.1,38.6,0.3C505.4,199.9,530.8,243,519.8,285.3z"/>
</svg>
