<?xml version="1.0" encoding="utf-8"?>
<!-- Generator: Adobe Illustrator 22.1.0, SVG Export Plug-In . SVG Version: 6.00 Build 0)  -->
<svg version="1.1" id="Ebene_1" xmlns="http://www.w3.org/2000/svg" xmlns:xlink="http://www.w3.org/1999/xlink" x="0px" y="0px"
	 viewBox="0 0 373 260" style="enable-background:new 0 0 373 260;" xml:space="preserve">
<style type="text/css">
	.st0{fill:#313131;}
	.st1{fill:#323232;}
</style>
<path class="st0" d="M-193-104v500h732v-500H-193z M371.5,146.9l-20.5,16.5c-0.9,0.7-1.8,1-2.6,1c-0.2,7.2-1.2,14.4-3,21.7
	c-2.7,10.5-7.1,20.4-13,29.4c-23.1,35.1-66.1,51.7-106.8,41.1c-10.9-2.8-21.2-7.5-30.4-13.7c-29.4,17-64.2,21.9-97.5,13.2
	c-16.3-4.2-31.1-11.5-43.9-20.9c-0.5,0.5-1.2,1-2.2,1.3l-25.3,7.1c-3.4,1-5.5-1.1-4.6-4.5l6.5-25.5c0.2-0.8,0.5-1.5,1-2
	C4.3,180.6-6.2,138.9,4.5,97.7c3.6-13.9,9.4-27,17.2-38.8C52.3,12.4,109.1-9.4,162.9,4.5c33.3,8.6,61.3,29.8,78.8,59
	c11.1-1,22.4,0,33.2,2.8c33.5,8.7,58.5,33.9,68.6,64.6c0.7-0.1,1.5,0,2.5,0.3l24.5,9.5C373.8,141.9,374.3,144.7,371.5,146.9z"/>
<path class="st1" d="M326.8,181.3c-2.2,8.6-5.8,16.6-10.5,23.6c-18.1,27.5-52.3,41.8-86,33.1c-10.5-2.7-19.9-7.5-28-13.7
	c15.5-14.8,22.3-32.9,27.8-47.6c1.6-4.2,3-7.9,4.5-11.2c1.4,3.5,3.8,6.7,7.2,8.9c8.9,5.8,20.8,3.4,26.6-5.5
	c5.8-8.9,3.4-20.8-5.5-26.6c-5.1-3.3-11.1-3.9-16.5-2.1c-14,3.3-19.5,17.8-25.3,33.1c-7.9,21-17.6,46.6-50.8,59.9
	c-1.3,0.5-2.7,1.1-4,1.5c-1.4,0.5-2.9,1-4.3,1.4c-18.7,5.6-39.2,6.5-59.5,1.2c-59.2-15.4-94.7-75.8-79.4-135
	c3.1-12.1,8.2-23.2,14.7-33.1C63.1,30.9,111,10.9,158.1,23.1c30.3,7.9,54.4,27.6,68.6,52.9c-22.5,6.6-38.6,24.9-52.9,41.3
	c-5.1,5.8-9.5,10.8-13.7,15c2.1-10-1.9-20.7-10.9-26.6c-11.8-7.8-27.7-4.5-35.5,7.3c-7.8,11.8-4.5,27.7,7.3,35.5c1,0.6,2,1.1,3,1.6
	l-0.1,0.1c23,12.8,39.6-6.3,57.1-26.5c13.8-15.9,29.5-33.9,50.4-39.1c12.3-3,25.5-3.1,38.6,0.3C312.4,95.9,337.8,139,326.8,181.3z"
	/>
</svg>
