<?xml version="1.0" encoding="utf-8"?>
<!-- Generator: Adobe Illustrator 23.0.0, SVG Export Plug-In . SVG Version: 6.00 Build 0)  -->
<svg version="1.1" id="Ebene_1" xmlns="http://www.w3.org/2000/svg" xmlns:xlink="http://www.w3.org/1999/xlink" x="0px" y="0px"
	 viewBox="0 0 475.65 441.7" style="enable-background:new 0 0 475.65 441.7;" xml:space="preserve">
<style type="text/css">
	.st0{fill:#323232;}
	.st1{fill:#010202;}
	.st2{fill:#FFFFFF;}
</style>
<g>
	<path class="st2" d="M426.18,303.32C426.32,303.25,427.09,301.55,426.18,303.32L426.18,303.32z"/>
	<path class="st2" d="M340.74,406.69C337.35,409.5,341.47,406.5,340.74,406.69L340.74,406.69z"/>
	<path class="st2" d="M425.4,304.86c0.35-0.69,0.59-1.18,0.78-1.53c-0.08,0.04,0.05-0.46,0.85-2.52
		c12.59-32.28,17.74-68.01,13.6-104.84C426.98,74.68,317.59-12.58,196.3,1.07C75.01,14.72-12.25,124.11,1.41,245.4
		s123.04,208.54,244.33,194.89c33.85-3.81,65.05-15.08,92.15-31.98c1.82-1.14,2.61-1.56,2.86-1.62c0.32-0.26,0.7-0.58,1.17-0.95
		c14.34-11.63,122.08,29.33,133.08,14.59C482.78,409.86,419.53,316.58,425.4,304.86z M241.06,398.77
		C142.71,409.85,54,339.09,42.93,240.73C31.86,142.37,102.62,53.66,200.97,42.59s187.07,59.69,198.14,158.05
		C410.18,298.99,339.42,387.7,241.06,398.77z"/>
</g>
<circle class="st2" cx="136.62" cy="220.68" r="28.07"/>
<circle class="st2" cx="220.91" cy="220.68" r="28.07"/>
<circle class="st2" cx="305.42" cy="220.68" r="28.07"/>
</svg>
