<svg width="274" height="24" viewBox="0 0 274 24" fill="none" xmlns="http://www.w3.org/2000/svg">
<rect y="4" width="208" height="12" rx="6" fill="#828282"/>
<rect y="4" width="270" height="15.5769" rx="7.78846" fill="#00BBBE"/>
<ellipse cx="83.0772" cy="11.7885" rx="11.6827" ry="11.6827" fill="#00BBBE"/>
<path d="M80.934 15.7607L82.6491 15.5515V8.67701H80.9131V7.51267L84.678 6.82941V15.5515L86.3932 15.7607V16.9808H80.934V15.7607Z" fill="white"/>
<ellipse cx="172.645" cy="11.7885" rx="11.6827" ry="11.6827" fill="#00BBBE"/>
<path d="M169.259 16.9808V15.6491L172.543 12.1282C173.017 11.5844 173.354 11.1265 173.554 10.7547C173.754 10.3782 173.854 10.0296 173.854 9.70887C173.854 9.28125 173.738 8.93265 173.505 8.66306C173.278 8.38882 172.952 8.2517 172.529 8.2517C172.06 8.2517 171.702 8.41206 171.455 8.73278C171.214 9.04885 171.093 9.47182 171.093 10.0017H169.113L169.099 9.95987C169.076 9.0442 169.375 8.2703 169.998 7.63816C170.626 7.00138 171.469 6.68298 172.529 6.68298C173.575 6.68298 174.398 6.9549 174.997 7.49872C175.597 8.04254 175.897 8.76764 175.897 9.67401C175.897 10.2876 175.727 10.8546 175.388 11.3752C175.053 11.8958 174.495 12.5744 173.714 13.4111L171.909 15.3842L171.923 15.419H174.558L174.642 14.415H176.19V16.9808H169.259Z" fill="white"/>
<ellipse cx="262.212" cy="11.7885" rx="11.6827" ry="11.6827" fill="#00BBBE"/>
<path d="M260.974 11.0405H262.117C262.601 11.0405 262.959 10.915 263.191 10.664C263.424 10.4084 263.54 10.0552 263.54 9.60429C263.54 9.19526 263.424 8.86757 263.191 8.62123C262.959 8.37488 262.622 8.2517 262.18 8.2517C261.799 8.2517 261.478 8.36326 261.218 8.58636C260.958 8.80947 260.828 9.1023 260.828 9.46485H258.854L258.841 9.42302C258.813 8.6282 259.117 7.97282 259.754 7.45689C260.391 6.94095 261.181 6.68298 262.124 6.68298C263.175 6.68298 264.011 6.93398 264.634 7.43597C265.262 7.93796 265.576 8.65376 265.576 9.58337C265.576 10.0249 265.436 10.4456 265.157 10.8453C264.878 11.2404 264.495 11.5495 264.007 11.7726C264.569 11.9725 264.997 12.2792 265.29 12.6929C265.587 13.1066 265.736 13.5877 265.736 14.1362C265.736 15.0658 265.397 15.7978 264.718 16.3324C264.044 16.8622 263.179 17.1272 262.124 17.1272C261.181 17.1272 260.37 16.8785 259.691 16.3812C259.017 15.8792 258.692 15.1727 258.715 14.2616L258.729 14.2198H260.702C260.702 14.6103 260.842 14.9333 261.12 15.1889C261.399 15.4399 261.753 15.5654 262.18 15.5654C262.65 15.5654 263.019 15.4353 263.289 15.175C263.563 14.9147 263.7 14.5614 263.7 14.1152C263.7 13.5807 263.565 13.1903 263.296 12.9439C263.031 12.6929 262.638 12.5674 262.117 12.5674H260.974V11.0405Z" fill="white"/>
</svg>
