<svg width="274" height="24" viewBox="0 0 274 24" fill="none" xmlns="http://www.w3.org/2000/svg">
<rect y="4" width="208" height="12" rx="6" fill="#828282"/>
<rect y="4" width="270" height="15.5769" rx="7.78846" fill="#00BBBE"/>
<ellipse cx="127.212" cy="11.7885" rx="11.6827" ry="11.6827" fill="#00BBBE"/>
<path d="M125.07 15.7607L126.785 15.5515V8.67701H125.049V7.51267L128.814 6.82941V15.5515L130.529 15.7607V16.9808H125.07V15.7607Z" fill="white"/>
<ellipse cx="262.212" cy="11.7885" rx="11.6827" ry="11.6827" fill="#00BBBE"/>
<path d="M258.828 16.9808V15.6491L262.111 12.1282C262.586 11.5844 262.923 11.1265 263.122 10.7547C263.322 10.3782 263.422 10.0296 263.422 9.70887C263.422 9.28125 263.306 8.93265 263.074 8.66306C262.846 8.38882 262.521 8.2517 262.098 8.2517C261.628 8.2517 261.27 8.41206 261.024 8.73278C260.782 9.04885 260.661 9.47182 260.661 10.0017H258.681L258.667 9.95987C258.644 9.0442 258.944 8.2703 259.567 7.63816C260.194 7.00138 261.038 6.68298 262.098 6.68298C263.143 6.68298 263.966 6.9549 264.566 7.49872C265.165 8.04254 265.465 8.76764 265.465 9.67401C265.465 10.2876 265.295 10.8546 264.956 11.3752C264.621 11.8958 264.064 12.5744 263.283 13.4111L261.477 15.3842L261.491 15.419H264.126L264.21 14.415H265.758V16.9808H258.828Z" fill="white"/>
</svg>
