<svg width="270" height="24" viewBox="0 0 270 24" fill="none" xmlns="http://www.w3.org/2000/svg">
<rect y="4" width="270" height="15.5769" rx="7.78846" fill="#828282"/>
<rect y="4" width="179.991" height="15.5769" rx="7.78846" fill="#00BBBE"/>
<ellipse cx="83.0772" cy="11.7885" rx="11.6827" ry="11.6827" fill="#00BBBE"/>
<path d="M80.934 15.7607L82.6491 15.5515V8.67701H80.9131V7.51267L84.678 6.82941V15.5515L86.3932 15.7607V16.9808H80.934V15.7607Z" fill="white"/>
<ellipse cx="172.645" cy="11.7885" rx="11.6827" ry="11.6827" fill="#00BBBE"/>
<path d="M169.259 16.9808V15.6491L172.543 12.1282C173.017 11.5844 173.354 11.1265 173.554 10.7547C173.754 10.3782 173.854 10.0296 173.854 9.70887C173.854 9.28125 173.738 8.93265 173.505 8.66306C173.278 8.38882 172.952 8.2517 172.529 8.2517C172.06 8.2517 171.702 8.41206 171.455 8.73278C171.214 9.04885 171.093 9.47182 171.093 10.0017H169.113L169.099 9.95987C169.076 9.0442 169.375 8.2703 169.998 7.63816C170.626 7.00138 171.469 6.68298 172.529 6.68298C173.575 6.68298 174.398 6.9549 174.997 7.49872C175.597 8.04254 175.897 8.76764 175.897 9.67401C175.897 10.2876 175.727 10.8546 175.388 11.3752C175.053 11.8958 174.495 12.5744 173.714 13.4111L171.909 15.3842L171.923 15.419H174.558L174.642 14.415H176.19V16.9808H169.259Z" fill="white"/>
</svg>
